<svg width="31" height="36" viewBox="0 0 31 36" fill="none" xmlns="http://www.w3.org/2000/svg">
<path d="M15.4412 17.7116C20.3148 17.7116 24.2647 13.8072 24.2647 8.9911C24.2647 4.17504 20.3148 0.270554 15.4412 0.270554C10.5676 0.270554 6.61765 4.17504 6.61765 8.9911C6.61765 13.8072 10.5676 17.7116 15.4412 17.7116ZM15.4412 2.45069C19.0905 2.45069 22.0588 5.38434 22.0588 8.9911C22.0588 12.5972 19.0905 15.5315 15.4412 15.5315C11.7918 15.5315 8.82353 12.5951 8.82353 8.9911C8.82353 5.38434 11.7946 2.45069 15.4412 2.45069ZM18.9361 20.9818H11.9462C5.34995 20.9818 0 26.2687 0 32.7886C0 34.0926 1.06985 35.1507 2.38925 35.1507H28.4945C29.8139 35.1527 30.8824 34.0967 30.8824 32.7886C30.8824 26.2687 25.5331 20.9818 18.9361 20.9818ZM28.4903 32.9726H2.38925C2.2886 32.9726 2.20588 32.8908 2.20588 32.7886C2.20588 27.4814 6.57629 23.162 11.9462 23.162H18.9292C24.3061 23.162 28.6765 27.4814 28.6765 32.7886C28.6765 32.8908 28.5937 32.9726 28.4903 32.9726Z" fill="#111847"/>
</svg>
