<svg width="30" height="30" viewBox="0 0 30 30" fill="none" xmlns="http://www.w3.org/2000/svg">
<path d="M29.5407 29.5603C28.9549 30.1465 28.0071 30.1465 27.4206 29.5603L14.9914 17.1201L2.55945 29.5603C1.97364 30.1465 1.02583 30.1465 0.439359 29.5603C-0.146453 28.9741 -0.146453 28.0257 0.439359 27.4389L12.8742 15.0014L0.441233 2.56115C-0.144579 1.97495 -0.144579 1.02651 0.441233 0.439651C1.02704 -0.14655 1.97486 -0.14655 2.56132 0.439651L14.9914 12.8827L27.4234 0.442463C28.0092 -0.143738 28.9571 -0.143738 29.5435 0.442463C30.1293 1.02866 30.1293 1.97711 29.5435 2.56396L17.1087 15.0014L29.5407 27.4417C30.1309 28.0229 30.1309 28.9791 29.5407 29.5603Z" fill="white"/>
</svg>
