<svg width="18" height="15" viewBox="0 0 18 15" fill="none" xmlns="http://www.w3.org/2000/svg">
<path d="M9.02941 0C6.11221 0 3.46186 1.45882 2.01057 3.68638V0.803571C2.01057 0.359933 1.61759 0 1.13321 0C0.648842 0 0.255859 0.359933 0.255859 0.803571V5.625C0.255859 6.07031 0.648842 6.42857 1.13321 6.42857H5.81244C6.29865 6.42857 6.6898 6.07031 6.6898 5.625C6.6898 5.17969 6.29865 4.82143 5.81244 4.82143H3.30979C4.39405 2.88951 6.59841 1.6058 9.02941 1.6058C12.5765 1.6058 15.4634 4.25123 15.4634 7.49866C15.4634 10.7461 12.5765 13.3614 9.02941 13.3614C7.52731 13.3614 6.06505 12.8779 4.91315 11.998C4.54174 11.7134 3.98791 11.7584 3.67718 12.1005C3.36645 12.4417 3.41672 12.9479 3.78912 13.2325C5.25679 14.3839 7.11751 15 9.02941 15C13.5441 15 17.2181 11.635 17.2181 7.5C17.2181 3.36496 13.5441 0 9.02941 0ZM9.02941 3.21429C8.54687 3.21429 8.15206 3.57589 8.15206 4.01786V8.03571C8.15206 8.2952 8.28882 8.53895 8.51909 8.68962L10.5662 10.0289C10.722 10.1317 10.9011 10.1786 11.0437 10.1786C11.3173 10.1786 11.5869 10.0614 11.7584 9.84174C12.0399 9.4808 11.9486 8.97958 11.5544 8.72109L9.90677 7.62388V4.01786C9.90677 3.57589 9.51562 3.21429 9.02941 3.21429Z" fill="#111847"/>
</svg>
