<svg width="18" height="16" viewBox="0 0 18 16" fill="none" xmlns="http://www.w3.org/2000/svg">
<path d="M-3.43323e-05 7.26501C-3.43323e-05 7.06573 0.0855923 6.86774 0.252079 6.72858L8.08244 0.166084C8.21589 0.0553125 8.38035 0 8.54464 0C8.70892 0 8.92556 0.0811523 9.0327 0.191924L16.8907 6.75524C17.0572 6.89294 17.1428 7.09216 17.1428 7.26501C17.1428 7.76306 16.7312 7.96813 16.4279 7.96813C16.2649 7.96813 16.1009 7.91344 15.9663 7.80152L15.2381 7.19332V13.8291C15.2381 14.5013 14.7041 15.0258 14.0476 15.0258H11.2172C10.5607 15.0258 10.0535 14.5002 10.0535 13.8539L10.0534 10.3383H7.22301L7.22311 13.8539C7.16961 14.5013 6.61008 15.0258 5.97913 15.0258H3.14878C2.49223 15.0258 1.98509 14.5002 1.98509 13.8539V7.21813L1.17556 7.82751C1.04116 7.93922 0.877048 7.99415 0.713655 7.99415C0.413656 7.96813 -3.43323e-05 7.73376 -3.43323e-05 7.26501ZM3.36008 13.5931H5.74104V10.0775C5.74104 9.43122 6.27497 8.90563 6.90473 8.90563H10.2381C10.8946 8.90563 11.4018 9.43122 11.4018 10.0775V13.5931H13.8095V6.09313C13.8095 6.06492 13.8225 6.0409 13.8258 6.01353L8.57139 1.65026L3.36008 6.02722V13.5931Z" fill="#111847"/>
</svg>
