<svg width="13" height="15" viewBox="0 0 13 15" fill="none" xmlns="http://www.w3.org/2000/svg">
<path d="M10.9717 6.54764H10.0574V3.73019C10.0574 1.65848 8.41704 0 6.40014 0C4.38324 0 2.74292 1.6849 2.74292 3.73019V6.52123L1.82861 6.54764C0.818589 6.54764 0 7.38848 0 8.42594V13.1217C0 14.1592 0.818589 15 1.82861 15H10.9717C11.9817 15 12.8003 14.1592 12.8003 13.1217V8.42594C12.8003 7.41636 11.9803 6.54764 10.9717 6.54764ZM3.65722 3.7566C3.65722 2.2029 4.88753 0.939151 6.40014 0.939151C7.91274 0.939151 9.14306 2.2029 9.14306 3.7566V6.57406H3.65722V3.7566ZM11.886 13.1481C11.886 13.6658 11.4757 14.0873 10.9717 14.0873H1.82861C1.3246 14.0873 0.914306 13.6658 0.914306 13.1481V8.45236C0.914306 7.93465 1.3246 7.51321 1.82861 7.51321H10.9717C11.4757 7.51321 11.886 7.93465 11.886 8.45236V13.1481Z" fill="#111847"/>
</svg>
