<svg width="11" height="17" viewBox="0 0 11 17" fill="none" xmlns="http://www.w3.org/2000/svg">
<path d="M8.43972 0H2.10993C0.944523 0 0 0.95127 0 2.125V14.875C0 16.0487 0.944523 17 2.10993 17H8.43972C9.60512 17 10.5496 16.0487 10.5496 14.875V2.125C10.5496 0.95127 9.60347 0 8.43972 0ZM9.49468 14.875C9.49468 15.4607 9.02127 15.9375 8.43972 15.9375H2.10993C1.52838 15.9375 1.05496 15.4607 1.05496 14.875V2.125C1.05496 1.5393 1.52838 1.0625 2.10993 1.0625H8.43972C9.02127 1.0625 9.49468 1.5393 9.49468 2.125V14.875ZM6.32979 13.2812H4.21986C3.92856 13.2812 3.69238 13.5191 3.69238 13.8125C3.69238 14.1059 3.92856 14.3438 4.21986 14.3438H6.32979C6.62109 14.3438 6.85727 14.1059 6.85727 13.8125C6.85727 13.5203 6.6199 13.2812 6.32979 13.2812Z" fill="#111847"/>
</svg>
