<svg width="18" height="15" viewBox="0 0 18 15" fill="none" xmlns="http://www.w3.org/2000/svg">
<path d="M16.8254 12.5H0.916667C0.428571 12.5 0 12.9219 0 13.4023C0 13.9531 0.428571 14.375 0.916667 14.375H16.8254C17.3492 14.375 17.7778 13.9531 17.7778 13.4727C17.7778 12.9219 17.3492 12.5 16.8254 12.5ZM16.8254 0H0.916667C0.428571 0 0 0.421875 0 0.902344C0 1.38281 0.428571 1.875 0.916667 1.875H16.8254C17.3492 1.875 17.7778 1.45313 17.7778 0.972656C17.7778 0.492188 17.3492 0 16.8254 0ZM16.8254 6.25H0.916667C0.428571 6.25 0 6.67188 0 7.1875C0 7.70312 0.428571 8.125 0.916667 8.125H16.8254C17.3492 8.125 17.7778 7.70312 17.7778 7.1875C17.7778 6.67188 17.3492 6.25 16.8254 6.25Z" fill="#111847"/>
</svg>
